<svg xmlns="http://www.w3.org/2000/svg" width="640" height="440" viewBox="0 0 640 440"><defs><radialGradient id="bg"><stop stop-color="#f5efe3"/><stop offset="1" stop-color="#dfe9dd"/></radialGradient><filter id="shadow"><feGaussianBlur stdDeviation="12"/></filter><clipPath id="plate"><circle cx="240" cy="160" r="123"/></clipPath></defs><rect width="640" height="440" fill="url(#bg)"/><ellipse cx="245" cy="179" rx="151" ry="140" fill="#596b5b" opacity=".18" filter="url(#shadow)"/><circle cx="240" cy="160" r="142" fill="#fefbf5" stroke="#d5d8cd" stroke-width="6"/><circle cx="240" cy="160" r="123" fill="#f0e5cc"/><g clip-path="url(#plate)"><ellipse cx="256" cy="127" rx="24" ry="14" transform="rotate(77 256 127)" fill="#b2be75" opacity=".94"/><ellipse cx="169" cy="137" rx="23" ry="18" transform="rotate(174 169 137)" fill="#e2b16b" opacity=".94"/><ellipse cx="177" cy="84" rx="11" ry="20" transform="rotate(121 177 84)" fill="#d87557" opacity=".94"/><ellipse cx="183" cy="104" rx="16" ry="20" transform="rotate(176 183 104)" fill="#79a878" opacity=".94"/><ellipse cx="238" cy="196" rx="15" ry="20" transform="rotate(153 238 196)" fill="#b2be75" opacity=".94"/><ellipse cx="195" cy="166" rx="20" ry="15" transform="rotate(67 195 166)" fill="#e2b16b" opacity=".94"/><ellipse cx="204" cy="84" rx="29" ry="9" transform="rotate(154 204 84)" fill="#d87557" opacity=".94"/><ellipse cx="239" cy="73" rx="20" ry="18" transform="rotate(136 239 73)" fill="#79a878" opacity=".94"/><ellipse cx="203" cy="201" rx="17" ry="20" transform="rotate(40 203 201)" fill="#b2be75" opacity=".94"/><ellipse cx="163" cy="200" rx="17" ry="21" transform="rotate(109 163 200)" fill="#e2b16b" opacity=".94"/><ellipse cx="249" cy="238" rx="17" ry="13" transform="rotate(13 249 238)" fill="#d87557" opacity=".94"/><ellipse cx="250" cy="252" rx="29" ry="14" transform="rotate(177 250 252)" fill="#79a878" opacity=".94"/><ellipse cx="191" cy="254" rx="25" ry="10" transform="rotate(168 191 254)" fill="#b2be75" opacity=".94"/><ellipse cx="267" cy="179" rx="23" ry="16" transform="rotate(130 267 179)" fill="#e2b16b" opacity=".94"/><ellipse cx="295" cy="86" rx="22" ry="17" transform="rotate(89 295 86)" fill="#d87557" opacity=".94"/><ellipse cx="258" cy="181" rx="15" ry="20" transform="rotate(36 258 181)" fill="#79a878" opacity=".94"/><ellipse cx="221" cy="86" rx="11" ry="17" transform="rotate(116 221 86)" fill="#b2be75" opacity=".94"/><ellipse cx="242" cy="120" rx="23" ry="10" transform="rotate(137 242 120)" fill="#e2b16b" opacity=".94"/><ellipse cx="198" cy="182" rx="23" ry="14" transform="rotate(45 198 182)" fill="#d87557" opacity=".94"/><ellipse cx="180" cy="235" rx="18" ry="16" transform="rotate(49 180 235)" fill="#79a878" opacity=".94"/><ellipse cx="227" cy="176" rx="29" ry="14" transform="rotate(72 227 176)" fill="#b2be75" opacity=".94"/><ellipse cx="148" cy="182" rx="20" ry="15" transform="rotate(37 148 182)" fill="#e2b16b" opacity=".94"/><ellipse cx="233" cy="263" rx="15" ry="21" transform="rotate(176 233 263)" fill="#d87557" opacity=".94"/><ellipse cx="136" cy="132" rx="12" ry="9" transform="rotate(44 136 132)" fill="#79a878" opacity=".94"/><ellipse cx="300" cy="169" rx="19" ry="16" transform="rotate(116 300 169)" fill="#b2be75" opacity=".94"/><ellipse cx="233" cy="115" rx="15" ry="17" transform="rotate(86 233 115)" fill="#e2b16b" opacity=".94"/><ellipse cx="236" cy="155" rx="27" ry="15" transform="rotate(90 236 155)" fill="#d87557" opacity=".94"/><ellipse cx="330" cy="231" rx="18" ry="20" transform="rotate(74 330 231)" fill="#79a878" opacity=".94"/><ellipse cx="304" cy="173" rx="23" ry="10" transform="rotate(68 304 173)" fill="#b2be75" opacity=".94"/><ellipse cx="262" cy="49" rx="24" ry="8" transform="rotate(63 262 49)" fill="#e2b16b" opacity=".94"/><ellipse cx="262" cy="96" rx="19" ry="19" transform="rotate(101 262 96)" fill="#d87557" opacity=".94"/><ellipse cx="241" cy="274" rx="23" ry="11" transform="rotate(156 241 274)" fill="#79a878" opacity=".94"/><ellipse cx="229" cy="45" rx="24" ry="17" transform="rotate(15 229 45)" fill="#b2be75" opacity=".94"/><ellipse cx="323" cy="160" rx="21" ry="15" transform="rotate(178 323 160)" fill="#e2b16b" opacity=".94"/><ellipse cx="188" cy="242" rx="20" ry="9" transform="rotate(165 188 242)" fill="#d87557" opacity=".94"/><ellipse cx="201" cy="120" rx="25" ry="20" transform="rotate(60 201 120)" fill="#79a878" opacity=".94"/></g><circle cx="240" cy="160" r="123" fill="none" stroke="#ffffff" stroke-opacity=".65" stroke-width="8"/><text x="448" y="135" font-size="17" font-family="Arial,sans-serif" fill="#54705e" text-anchor="middle">EVERYDAY SORTED</text><text x="448" y="171" font-size="22" font-family="Arial,sans-serif" font-weight="bold" fill="#214637" text-anchor="middle">Recipe illustration</text><text x="320" y="353" font-size="26" font-family="Arial,sans-serif" font-weight="bold" fill="#214637" text-anchor="middle">Black bean burrito bowls</text><text x="320" y="383" font-size="16" font-family="Arial,sans-serif" fill="#60766a" text-anchor="middle">Illustrative artwork · not a food photograph</text></svg>