<svg xmlns="http://www.w3.org/2000/svg" width="640" height="440" viewBox="0 0 640 440"><defs><radialGradient id="bg"><stop stop-color="#f5efe3"/><stop offset="1" stop-color="#dfe9dd"/></radialGradient><filter id="shadow"><feGaussianBlur stdDeviation="12"/></filter><clipPath id="plate"><circle cx="240" cy="160" r="123"/></clipPath></defs><rect width="640" height="440" fill="url(#bg)"/><ellipse cx="245" cy="179" rx="151" ry="140" fill="#596b5b" opacity=".18" filter="url(#shadow)"/><circle cx="240" cy="160" r="142" fill="#fefbf5" stroke="#d5d8cd" stroke-width="6"/><circle cx="240" cy="160" r="123" fill="#f0e5cc"/><g clip-path="url(#plate)"><ellipse cx="329" cy="189" rx="28" ry="20" transform="rotate(36 329 189)" fill="#b2be75" opacity=".94"/><ellipse cx="221" cy="187" rx="27" ry="12" transform="rotate(156 221 187)" fill="#e2b16b" opacity=".94"/><ellipse cx="213" cy="182" rx="22" ry="21" transform="rotate(120 213 182)" fill="#d87557" opacity=".94"/><ellipse cx="276" cy="226" rx="22" ry="8" transform="rotate(153 276 226)" fill="#79a878" opacity=".94"/><ellipse cx="324" cy="177" rx="20" ry="18" transform="rotate(134 324 177)" fill="#b2be75" opacity=".94"/><ellipse cx="246" cy="44" rx="15" ry="12" transform="rotate(71 246 44)" fill="#e2b16b" opacity=".94"/><ellipse cx="294" cy="88" rx="27" ry="11" transform="rotate(91 294 88)" fill="#d87557" opacity=".94"/><ellipse cx="219" cy="143" rx="26" ry="14" transform="rotate(176 219 143)" fill="#79a878" opacity=".94"/><ellipse cx="212" cy="238" rx="19" ry="15" transform="rotate(40 212 238)" fill="#b2be75" opacity=".94"/><ellipse cx="257" cy="219" rx="22" ry="8" transform="rotate(0 257 219)" fill="#e2b16b" opacity=".94"/><ellipse cx="293" cy="198" rx="26" ry="11" transform="rotate(122 293 198)" fill="#d87557" opacity=".94"/><ellipse cx="181" cy="221" rx="25" ry="13" transform="rotate(162 181 221)" fill="#79a878" opacity=".94"/><ellipse cx="308" cy="244" rx="18" ry="12" transform="rotate(82 308 244)" fill="#b2be75" opacity=".94"/><ellipse cx="213" cy="165" rx="15" ry="20" transform="rotate(97 213 165)" fill="#e2b16b" opacity=".94"/><ellipse cx="180" cy="138" rx="11" ry="19" transform="rotate(88 180 138)" fill="#d87557" opacity=".94"/><ellipse cx="272" cy="191" rx="13" ry="16" transform="rotate(69 272 191)" fill="#79a878" opacity=".94"/><ellipse cx="193" cy="232" rx="20" ry="16" transform="rotate(134 193 232)" fill="#b2be75" opacity=".94"/><ellipse cx="226" cy="126" rx="21" ry="20" transform="rotate(50 226 126)" fill="#e2b16b" opacity=".94"/><ellipse cx="318" cy="179" rx="23" ry="21" transform="rotate(71 318 179)" fill="#d87557" opacity=".94"/><ellipse cx="135" cy="183" rx="14" ry="16" transform="rotate(24 135 183)" fill="#79a878" opacity=".94"/><ellipse cx="266" cy="64" rx="19" ry="13" transform="rotate(59 266 64)" fill="#b2be75" opacity=".94"/><ellipse cx="319" cy="153" rx="22" ry="9" transform="rotate(3 319 153)" fill="#e2b16b" opacity=".94"/><ellipse cx="248" cy="53" rx="18" ry="9" transform="rotate(179 248 53)" fill="#d87557" opacity=".94"/><ellipse cx="282" cy="154" rx="16" ry="20" transform="rotate(47 282 154)" fill="#79a878" opacity=".94"/><ellipse cx="132" cy="164" rx="24" ry="14" transform="rotate(108 132 164)" fill="#b2be75" opacity=".94"/><ellipse cx="333" cy="150" rx="28" ry="20" transform="rotate(124 333 150)" fill="#e2b16b" opacity=".94"/><ellipse cx="335" cy="153" rx="17" ry="15" transform="rotate(20 335 153)" fill="#d87557" opacity=".94"/><ellipse cx="231" cy="223" rx="11" ry="16" transform="rotate(173 231 223)" fill="#79a878" opacity=".94"/><ellipse cx="202" cy="75" rx="25" ry="19" transform="rotate(134 202 75)" fill="#b2be75" opacity=".94"/><ellipse cx="345" cy="197" rx="27" ry="8" transform="rotate(138 345 197)" fill="#e2b16b" opacity=".94"/><ellipse cx="192" cy="111" rx="28" ry="19" transform="rotate(134 192 111)" fill="#d87557" opacity=".94"/><ellipse cx="250" cy="46" rx="22" ry="13" transform="rotate(170 250 46)" fill="#79a878" opacity=".94"/><ellipse cx="183" cy="82" rx="12" ry="11" transform="rotate(110 183 82)" fill="#b2be75" opacity=".94"/><ellipse cx="219" cy="248" rx="13" ry="13" transform="rotate(143 219 248)" fill="#e2b16b" opacity=".94"/><ellipse cx="173" cy="235" rx="15" ry="8" transform="rotate(75 173 235)" fill="#d87557" opacity=".94"/><ellipse cx="249" cy="240" rx="28" ry="10" transform="rotate(134 249 240)" fill="#79a878" opacity=".94"/></g><circle cx="240" cy="160" r="123" fill="none" stroke="#ffffff" stroke-opacity=".65" stroke-width="8"/><text x="448" y="135" font-size="17" font-family="Arial,sans-serif" fill="#54705e" text-anchor="middle">EVERYDAY SORTED</text><text x="448" y="171" font-size="22" font-family="Arial,sans-serif" font-weight="bold" fill="#214637" text-anchor="middle">Recipe illustration</text><text x="320" y="353" font-size="26" font-family="Arial,sans-serif" font-weight="bold" fill="#214637" text-anchor="middle">Homemade chickpea curry</text><text x="320" y="383" font-size="16" font-family="Arial,sans-serif" fill="#60766a" text-anchor="middle">Illustrative artwork · not a food photograph</text></svg>