<svg xmlns="http://www.w3.org/2000/svg" width="640" height="440" viewBox="0 0 640 440"><defs><radialGradient id="bg"><stop stop-color="#f5efe3"/><stop offset="1" stop-color="#dfe9dd"/></radialGradient><filter id="shadow"><feGaussianBlur stdDeviation="12"/></filter><clipPath id="plate"><circle cx="240" cy="160" r="123"/></clipPath></defs><rect width="640" height="440" fill="url(#bg)"/><ellipse cx="245" cy="179" rx="151" ry="140" fill="#596b5b" opacity=".18" filter="url(#shadow)"/><circle cx="240" cy="160" r="142" fill="#fefbf5" stroke="#d5d8cd" stroke-width="6"/><circle cx="240" cy="160" r="123" fill="#f0e5cc"/><g clip-path="url(#plate)"><ellipse cx="334" cy="116" rx="13" ry="8" transform="rotate(99 334 116)" fill="#b2be75" opacity=".94"/><ellipse cx="215" cy="267" rx="22" ry="8" transform="rotate(167 215 267)" fill="#e2b16b" opacity=".94"/><ellipse cx="141" cy="184" rx="13" ry="8" transform="rotate(81 141 184)" fill="#d87557" opacity=".94"/><ellipse cx="195" cy="199" rx="22" ry="12" transform="rotate(2 195 199)" fill="#79a878" opacity=".94"/><ellipse cx="185" cy="256" rx="26" ry="15" transform="rotate(6 185 256)" fill="#b2be75" opacity=".94"/><ellipse cx="182" cy="114" rx="14" ry="21" transform="rotate(131 182 114)" fill="#e2b16b" opacity=".94"/><ellipse cx="265" cy="108" rx="22" ry="10" transform="rotate(32 265 108)" fill="#d87557" opacity=".94"/><ellipse cx="167" cy="202" rx="19" ry="18" transform="rotate(91 167 202)" fill="#79a878" opacity=".94"/><ellipse cx="284" cy="209" rx="16" ry="13" transform="rotate(49 284 209)" fill="#b2be75" opacity=".94"/><ellipse cx="315" cy="210" rx="27" ry="19" transform="rotate(31 315 210)" fill="#e2b16b" opacity=".94"/><ellipse cx="180" cy="157" rx="11" ry="15" transform="rotate(95 180 157)" fill="#d87557" opacity=".94"/><ellipse cx="220" cy="68" rx="29" ry="13" transform="rotate(69 220 68)" fill="#79a878" opacity=".94"/><ellipse cx="326" cy="84" rx="18" ry="13" transform="rotate(8 326 84)" fill="#b2be75" opacity=".94"/><ellipse cx="317" cy="217" rx="20" ry="11" transform="rotate(99 317 217)" fill="#e2b16b" opacity=".94"/><ellipse cx="218" cy="174" rx="14" ry="15" transform="rotate(162 218 174)" fill="#d87557" opacity=".94"/><ellipse cx="262" cy="138" rx="19" ry="9" transform="rotate(86 262 138)" fill="#79a878" opacity=".94"/><ellipse cx="146" cy="182" rx="28" ry="10" transform="rotate(46 146 182)" fill="#b2be75" opacity=".94"/><ellipse cx="262" cy="148" rx="24" ry="10" transform="rotate(18 262 148)" fill="#e2b16b" opacity=".94"/><ellipse cx="151" cy="86" rx="25" ry="19" transform="rotate(96 151 86)" fill="#d87557" opacity=".94"/><ellipse cx="178" cy="161" rx="25" ry="16" transform="rotate(70 178 161)" fill="#79a878" opacity=".94"/><ellipse cx="250" cy="78" rx="26" ry="10" transform="rotate(21 250 78)" fill="#b2be75" opacity=".94"/><ellipse cx="218" cy="151" rx="24" ry="17" transform="rotate(83 218 151)" fill="#e2b16b" opacity=".94"/><ellipse cx="308" cy="180" rx="20" ry="18" transform="rotate(67 308 180)" fill="#d87557" opacity=".94"/><ellipse cx="260" cy="235" rx="12" ry="13" transform="rotate(62 260 235)" fill="#79a878" opacity=".94"/><ellipse cx="337" cy="144" rx="19" ry="20" transform="rotate(42 337 144)" fill="#b2be75" opacity=".94"/><ellipse cx="285" cy="190" rx="23" ry="14" transform="rotate(24 285 190)" fill="#e2b16b" opacity=".94"/><ellipse cx="340" cy="212" rx="13" ry="9" transform="rotate(1 340 212)" fill="#d87557" opacity=".94"/><ellipse cx="256" cy="89" rx="22" ry="11" transform="rotate(149 256 89)" fill="#79a878" opacity=".94"/><ellipse cx="323" cy="108" rx="17" ry="14" transform="rotate(34 323 108)" fill="#b2be75" opacity=".94"/><ellipse cx="225" cy="247" rx="12" ry="10" transform="rotate(163 225 247)" fill="#e2b16b" opacity=".94"/><ellipse cx="225" cy="248" rx="14" ry="8" transform="rotate(95 225 248)" fill="#d87557" opacity=".94"/><ellipse cx="238" cy="151" rx="27" ry="13" transform="rotate(112 238 151)" fill="#79a878" opacity=".94"/><ellipse cx="301" cy="114" rx="16" ry="17" transform="rotate(41 301 114)" fill="#b2be75" opacity=".94"/><ellipse cx="300" cy="132" rx="11" ry="21" transform="rotate(159 300 132)" fill="#e2b16b" opacity=".94"/><ellipse cx="201" cy="249" rx="21" ry="9" transform="rotate(3 201 249)" fill="#d87557" opacity=".94"/><ellipse cx="245" cy="77" rx="11" ry="12" transform="rotate(28 245 77)" fill="#79a878" opacity=".94"/></g><circle cx="240" cy="160" r="123" fill="none" stroke="#ffffff" stroke-opacity=".65" stroke-width="8"/><text x="448" y="135" font-size="17" font-family="Arial,sans-serif" fill="#54705e" text-anchor="middle">EVERYDAY SORTED</text><text x="448" y="171" font-size="22" font-family="Arial,sans-serif" font-weight="bold" fill="#214637" text-anchor="middle">Recipe illustration</text><text x="320" y="353" font-size="26" font-family="Arial,sans-serif" font-weight="bold" fill="#214637" text-anchor="middle">Halloumi couscous bowls</text><text x="320" y="383" font-size="16" font-family="Arial,sans-serif" fill="#60766a" text-anchor="middle">Illustrative artwork · not a food photograph</text></svg>