<svg xmlns="http://www.w3.org/2000/svg" width="640" height="440" viewBox="0 0 640 440"><defs><radialGradient id="bg"><stop stop-color="#f5efe3"/><stop offset="1" stop-color="#dfe9dd"/></radialGradient><filter id="shadow"><feGaussianBlur stdDeviation="12"/></filter><clipPath id="plate"><circle cx="240" cy="160" r="123"/></clipPath></defs><rect width="640" height="440" fill="url(#bg)"/><ellipse cx="245" cy="179" rx="151" ry="140" fill="#596b5b" opacity=".18" filter="url(#shadow)"/><circle cx="240" cy="160" r="142" fill="#fefbf5" stroke="#d5d8cd" stroke-width="6"/><circle cx="240" cy="160" r="123" fill="#f0e5cc"/><g clip-path="url(#plate)"><ellipse cx="308" cy="251" rx="11" ry="18" transform="rotate(84 308 251)" fill="#f09c72" opacity=".94"/><ellipse cx="293" cy="194" rx="25" ry="11" transform="rotate(50 293 194)" fill="#f8d6a5" opacity=".94"/><ellipse cx="278" cy="230" rx="21" ry="11" transform="rotate(105 278 230)" fill="#95bfa0" opacity=".94"/><ellipse cx="225" cy="127" rx="15" ry="16" transform="rotate(118 225 127)" fill="#de7558" opacity=".94"/><ellipse cx="225" cy="106" rx="16" ry="21" transform="rotate(103 225 106)" fill="#f09c72" opacity=".94"/><ellipse cx="145" cy="126" rx="13" ry="15" transform="rotate(76 145 126)" fill="#f8d6a5" opacity=".94"/><ellipse cx="172" cy="128" rx="15" ry="9" transform="rotate(73 172 128)" fill="#95bfa0" opacity=".94"/><ellipse cx="179" cy="240" rx="25" ry="16" transform="rotate(64 179 240)" fill="#de7558" opacity=".94"/><ellipse cx="190" cy="93" rx="18" ry="9" transform="rotate(137 190 93)" fill="#f09c72" opacity=".94"/><ellipse cx="133" cy="117" rx="23" ry="8" transform="rotate(20 133 117)" fill="#f8d6a5" opacity=".94"/><ellipse cx="309" cy="175" rx="18" ry="12" transform="rotate(135 309 175)" fill="#95bfa0" opacity=".94"/><ellipse cx="229" cy="114" rx="14" ry="10" transform="rotate(17 229 114)" fill="#de7558" opacity=".94"/><ellipse cx="300" cy="113" rx="28" ry="20" transform="rotate(120 300 113)" fill="#f09c72" opacity=".94"/><ellipse cx="224" cy="67" rx="11" ry="13" transform="rotate(101 224 67)" fill="#f8d6a5" opacity=".94"/><ellipse cx="248" cy="218" rx="27" ry="11" transform="rotate(6 248 218)" fill="#95bfa0" opacity=".94"/><ellipse cx="174" cy="71" rx="16" ry="12" transform="rotate(104 174 71)" fill="#de7558" opacity=".94"/><ellipse cx="178" cy="166" rx="29" ry="8" transform="rotate(150 178 166)" fill="#f09c72" opacity=".94"/><ellipse cx="226" cy="197" rx="19" ry="14" transform="rotate(145 226 197)" fill="#f8d6a5" opacity=".94"/><ellipse cx="283" cy="122" rx="12" ry="11" transform="rotate(91 283 122)" fill="#95bfa0" opacity=".94"/><ellipse cx="320" cy="118" rx="27" ry="12" transform="rotate(7 320 118)" fill="#de7558" opacity=".94"/><ellipse cx="222" cy="226" rx="17" ry="18" transform="rotate(179 222 226)" fill="#f09c72" opacity=".94"/><ellipse cx="140" cy="189" rx="14" ry="13" transform="rotate(33 140 189)" fill="#f8d6a5" opacity=".94"/><ellipse cx="263" cy="172" rx="20" ry="16" transform="rotate(177 263 172)" fill="#95bfa0" opacity=".94"/><ellipse cx="244" cy="184" rx="26" ry="20" transform="rotate(170 244 184)" fill="#de7558" opacity=".94"/><ellipse cx="263" cy="142" rx="23" ry="10" transform="rotate(150 263 142)" fill="#f09c72" opacity=".94"/><ellipse cx="136" cy="157" rx="24" ry="12" transform="rotate(72 136 157)" fill="#f8d6a5" opacity=".94"/><ellipse cx="232" cy="123" rx="14" ry="9" transform="rotate(61 232 123)" fill="#95bfa0" opacity=".94"/><ellipse cx="184" cy="127" rx="25" ry="14" transform="rotate(161 184 127)" fill="#de7558" opacity=".94"/><ellipse cx="299" cy="137" rx="15" ry="15" transform="rotate(135 299 137)" fill="#f09c72" opacity=".94"/><ellipse cx="222" cy="49" rx="23" ry="14" transform="rotate(176 222 49)" fill="#f8d6a5" opacity=".94"/><ellipse cx="327" cy="93" rx="28" ry="8" transform="rotate(106 327 93)" fill="#95bfa0" opacity=".94"/><ellipse cx="238" cy="274" rx="12" ry="11" transform="rotate(138 238 274)" fill="#de7558" opacity=".94"/><ellipse cx="306" cy="226" rx="22" ry="12" transform="rotate(7 306 226)" fill="#f09c72" opacity=".94"/><ellipse cx="240" cy="67" rx="15" ry="16" transform="rotate(104 240 67)" fill="#f8d6a5" opacity=".94"/><ellipse cx="319" cy="187" rx="11" ry="11" transform="rotate(155 319 187)" fill="#95bfa0" opacity=".94"/><ellipse cx="175" cy="96" rx="28" ry="9" transform="rotate(124 175 96)" fill="#de7558" opacity=".94"/></g><circle cx="240" cy="160" r="123" fill="none" stroke="#ffffff" stroke-opacity=".65" stroke-width="8"/><text x="448" y="135" font-size="17" font-family="Arial,sans-serif" fill="#54705e" text-anchor="middle">EVERYDAY SORTED</text><text x="448" y="171" font-size="22" font-family="Arial,sans-serif" font-weight="bold" fill="#214637" text-anchor="middle">Recipe illustration</text><text x="320" y="353" font-size="26" font-family="Arial,sans-serif" font-weight="bold" fill="#214637" text-anchor="middle">Tuna jacket potato</text><text x="320" y="383" font-size="16" font-family="Arial,sans-serif" fill="#60766a" text-anchor="middle">Illustrative artwork · not a food photograph</text></svg>