<svg xmlns="http://www.w3.org/2000/svg" width="640" height="440" viewBox="0 0 640 440"><defs><radialGradient id="bg"><stop stop-color="#f5efe3"/><stop offset="1" stop-color="#dfe9dd"/></radialGradient><filter id="shadow"><feGaussianBlur stdDeviation="12"/></filter><clipPath id="plate"><circle cx="240" cy="160" r="123"/></clipPath></defs><rect width="640" height="440" fill="url(#bg)"/><ellipse cx="245" cy="179" rx="151" ry="140" fill="#596b5b" opacity=".18" filter="url(#shadow)"/><circle cx="240" cy="160" r="142" fill="#fefbf5" stroke="#d5d8cd" stroke-width="6"/><circle cx="240" cy="160" r="123" fill="#f0e5cc"/><g clip-path="url(#plate)"><ellipse cx="280" cy="76" rx="25" ry="10" transform="rotate(20 280 76)" fill="#b2be75" opacity=".94"/><ellipse cx="145" cy="130" rx="16" ry="18" transform="rotate(143 145 130)" fill="#e2b16b" opacity=".94"/><ellipse cx="305" cy="240" rx="19" ry="9" transform="rotate(136 305 240)" fill="#d87557" opacity=".94"/><ellipse cx="178" cy="174" rx="22" ry="17" transform="rotate(30 178 174)" fill="#79a878" opacity=".94"/><ellipse cx="128" cy="172" rx="17" ry="21" transform="rotate(71 128 172)" fill="#b2be75" opacity=".94"/><ellipse cx="219" cy="97" rx="21" ry="21" transform="rotate(81 219 97)" fill="#e2b16b" opacity=".94"/><ellipse cx="309" cy="123" rx="29" ry="13" transform="rotate(127 309 123)" fill="#d87557" opacity=".94"/><ellipse cx="348" cy="154" rx="18" ry="19" transform="rotate(122 348 154)" fill="#79a878" opacity=".94"/><ellipse cx="166" cy="73" rx="21" ry="8" transform="rotate(19 166 73)" fill="#b2be75" opacity=".94"/><ellipse cx="323" cy="120" rx="26" ry="18" transform="rotate(174 323 120)" fill="#e2b16b" opacity=".94"/><ellipse cx="201" cy="86" rx="25" ry="13" transform="rotate(25 201 86)" fill="#d87557" opacity=".94"/><ellipse cx="143" cy="123" rx="16" ry="21" transform="rotate(84 143 123)" fill="#79a878" opacity=".94"/><ellipse cx="302" cy="177" rx="25" ry="15" transform="rotate(23 302 177)" fill="#b2be75" opacity=".94"/><ellipse cx="206" cy="223" rx="25" ry="12" transform="rotate(71 206 223)" fill="#e2b16b" opacity=".94"/><ellipse cx="242" cy="206" rx="16" ry="17" transform="rotate(96 242 206)" fill="#d87557" opacity=".94"/><ellipse cx="233" cy="103" rx="14" ry="19" transform="rotate(63 233 103)" fill="#79a878" opacity=".94"/><ellipse cx="329" cy="109" rx="18" ry="13" transform="rotate(115 329 109)" fill="#b2be75" opacity=".94"/><ellipse cx="248" cy="60" rx="19" ry="12" transform="rotate(96 248 60)" fill="#e2b16b" opacity=".94"/><ellipse cx="304" cy="181" rx="17" ry="13" transform="rotate(18 304 181)" fill="#d87557" opacity=".94"/><ellipse cx="191" cy="173" rx="20" ry="18" transform="rotate(7 191 173)" fill="#79a878" opacity=".94"/><ellipse cx="204" cy="103" rx="18" ry="20" transform="rotate(148 204 103)" fill="#b2be75" opacity=".94"/><ellipse cx="199" cy="57" rx="15" ry="9" transform="rotate(138 199 57)" fill="#e2b16b" opacity=".94"/><ellipse cx="258" cy="128" rx="21" ry="21" transform="rotate(173 258 128)" fill="#d87557" opacity=".94"/><ellipse cx="331" cy="142" rx="20" ry="14" transform="rotate(115 331 142)" fill="#79a878" opacity=".94"/><ellipse cx="213" cy="183" rx="13" ry="15" transform="rotate(177 213 183)" fill="#b2be75" opacity=".94"/><ellipse cx="166" cy="213" rx="16" ry="8" transform="rotate(35 166 213)" fill="#e2b16b" opacity=".94"/><ellipse cx="225" cy="199" rx="16" ry="16" transform="rotate(96 225 199)" fill="#d87557" opacity=".94"/><ellipse cx="341" cy="111" rx="17" ry="9" transform="rotate(57 341 111)" fill="#79a878" opacity=".94"/><ellipse cx="238" cy="89" rx="16" ry="13" transform="rotate(48 238 89)" fill="#b2be75" opacity=".94"/><ellipse cx="309" cy="193" rx="19" ry="11" transform="rotate(98 309 193)" fill="#e2b16b" opacity=".94"/><ellipse cx="317" cy="204" rx="12" ry="12" transform="rotate(93 317 204)" fill="#d87557" opacity=".94"/><ellipse cx="320" cy="215" rx="27" ry="8" transform="rotate(66 320 215)" fill="#79a878" opacity=".94"/><ellipse cx="268" cy="54" rx="14" ry="14" transform="rotate(92 268 54)" fill="#b2be75" opacity=".94"/><ellipse cx="247" cy="112" rx="12" ry="16" transform="rotate(31 247 112)" fill="#e2b16b" opacity=".94"/><ellipse cx="219" cy="217" rx="22" ry="15" transform="rotate(0 219 217)" fill="#d87557" opacity=".94"/><ellipse cx="208" cy="259" rx="17" ry="19" transform="rotate(157 208 259)" fill="#79a878" opacity=".94"/></g><circle cx="240" cy="160" r="123" fill="none" stroke="#ffffff" stroke-opacity=".65" stroke-width="8"/><text x="448" y="135" font-size="17" font-family="Arial,sans-serif" fill="#54705e" text-anchor="middle">EVERYDAY SORTED</text><text x="448" y="171" font-size="22" font-family="Arial,sans-serif" font-weight="bold" fill="#214637" text-anchor="middle">Recipe illustration</text><text x="320" y="353" font-size="26" font-family="Arial,sans-serif" font-weight="bold" fill="#214637" text-anchor="middle">Sausage bean casserole</text><text x="320" y="383" font-size="16" font-family="Arial,sans-serif" fill="#60766a" text-anchor="middle">Illustrative artwork · not a food photograph</text></svg>